<svg width="147" height="107" viewBox="0 0 147 107" fill="none" xmlns="http://www.w3.org/2000/svg">
<path fill-rule="evenodd" clip-rule="evenodd" d="M100.333 0C126.107 0 147 20.9236 147 46.7341C147 63.8533 137.809 78.8226 124.098 86.9628C124.103 86.964 124.105 86.9645 124.105 86.9645C124.105 86.9645 124.092 86.97 124.068 86.9811C123.355 87.4037 122.629 87.8079 121.893 88.1929C118.632 90.2856 112.832 95.1932 112 103.983C111.227 112.153 101.187 102.063 96.3159 93.4683H46.6667C20.8934 93.4683 0 72.5447 0 46.7341C0 20.9236 20.8934 0 46.6667 0H100.333ZM100.333 21.9557H46.6667C33.0017 21.9557 21.924 33.0494 21.924 46.7341C21.924 60.282 32.7812 71.2904 46.2575 71.5093L46.6667 71.5126H100.333C113.998 71.5126 125.076 60.4189 125.076 46.7341C125.076 33.1862 114.219 22.1778 100.743 21.959L100.333 21.9557Z" fill="#012B32"/>
</svg>
