<?xml version="1.0" encoding="UTF-8"?>
<svg width="180px" height="180px" viewBox="0 0 180 180" version="1.1" xmlns="http://www.w3.org/2000/svg" xmlns:xlink="http://www.w3.org/1999/xlink">
    <title>Artboard</title>
    <g id="Artboard" stroke="none" stroke-width="1" fill="none" fill-rule="evenodd">
        <path d="M163.725538,84.4212865 L28.5314044,8.81523646 C27.3940505,8.17920102 26.0893878,7.90495191 24.7918324,8.02919206 C23.494213,8.15343222 22.2654892,8.67027895 21.2698963,9.51054653 C20.2743035,10.3508141 19.5592233,11.4745385 19.2202518,12.7315829 C18.8812802,13.9885633 18.9346167,15.3189497 19.3730259,16.5448541 L44.8735594,87.8492407 C45.3709396,89.2399889 45.3709396,90.7599003 44.8735594,92.1506485 L19.3730259,163.455419 C18.9346167,164.681196 18.8812802,166.011838 19.2202518,167.268307 C19.5592233,168.525415 20.2743035,169.649523 21.2698963,170.489726 C22.2654892,171.32993 23.494213,171.846585 24.7918324,171.970633 C26.0894519,172.095321 27.3941146,171.821008 28.5314685,171.184781 L163.725538,95.5792422 C164.718633,95.0235826 165.545252,94.214071 166.120877,93.2331939 C166.696501,92.2529563 167,91.1365214 167,90.0002647 C167,88.8633677 166.696501,87.7475724 166.120877,86.7666953 C165.545252,85.7858182 164.718633,84.9763073 163.725538,84.4212865 L163.725538,84.4212865 Z M45,90.5 L96,90.5" id="Combined-Shape" stroke="#0B6678" stroke-width="10"></path>
    </g>
</svg>