<svg width="22" height="22" viewBox="0 0 22 22" fill="none" xmlns="http://www.w3.org/2000/svg">
<path fill-rule="evenodd" clip-rule="evenodd" d="M16.6898 14.8044L21.4602 19.7917C21.9084 20.3159 21.887 21.1147 21.4115 21.6119C20.936 22.109 20.1718 22.1314 19.6705 21.6628L14.9 16.6755C13.3711 17.8762 11.51 18.5244 9.59772 18.5222C4.71319 18.5222 0.739258 14.3677 0.739258 9.26112C0.739258 4.15457 4.71319 0 9.59772 0C14.4822 0 18.4562 4.15457 18.4562 9.26112C18.4583 11.2603 17.8383 13.206 16.6898 14.8044ZM9.59756 2.646C6.10299 2.646 3.27008 5.60767 3.27008 9.26108C3.27427 12.9127 6.10473 15.8718 9.59756 15.8762C13.0921 15.8762 15.925 12.9145 15.925 9.26108C15.925 5.60767 13.0921 2.646 9.59756 2.646Z" fill="white"/>
</svg>
